<svg height="512" viewBox="0 0 24 24" width="512" xmlns="http://www.w3.org/2000/svg"><path d="m9.5 20h-5.589c-.771 0-1.425-.524-1.555-1.248l-2.333-13c-.076-.42.04-.852.319-1.186.301-.36.751-.566 1.235-.566h16.846c.484 0 .934.206 1.235.566.279.334.395.766.319 1.187l-.481 3.81c-.035.274-.284.472-.559.434-.274-.035-.468-.285-.434-.559l.485-3.836c.036-.202-.046-.332-.098-.394-.11-.132-.281-.208-.467-.208h-16.846c-.186 0-.357.076-.467.208-.052.062-.134.192-.103.367l2.333 13.001c.044.241.289.424.571.424h5.589c.276 0 .5.224.5.5s-.224.5-.5.5z"/><path d="m4.5 8c-.066 0-.133-.013-.197-.04-.254-.109-.371-.403-.262-.657l3-7c.108-.254.404-.37.656-.263.254.109.372.403.263.657l-3 7c-.082.19-.266.303-.46.303z"/><path d="m15.5 8c-.194 0-.378-.113-.459-.303l-3-7c-.109-.254.009-.548.263-.657.251-.108.547.009.656.263l3 7c.109.254-.009.548-.263.657-.064.027-.131.04-.197.04z"/><path d="m7.5 18c-.276 0-.5-.224-.5-.5v-5c0-.276.224-.5.5-.5s.5.224.5.5v5c0 .276-.224.5-.5.5z"/><path d="m17.5 24c-.105 0-.21-.033-.299-.1-.253-.188-6.201-4.67-6.201-8.269 0-2.002 1.628-3.631 3.63-3.631 1.14 0 2.193.531 2.87 1.403.676-.872 1.729-1.403 2.87-1.403 2.002 0 3.63 1.629 3.63 3.631 0 3.6-5.948 8.081-6.201 8.27-.089.066-.194.099-.299.099zm-2.87-11c-1.45 0-2.63 1.181-2.63 2.631 0 2.429 3.723 5.848 5.5 7.239 1.776-1.392 5.5-4.813 5.5-7.239 0-1.45-1.18-2.631-2.63-2.631-1.049 0-1.995.619-2.411 1.577-.158.365-.759.365-.917 0-.417-.958-1.363-1.577-2.412-1.577z"/></svg>